# xmcd
#
# Track frame offsets:
#	183
#	12613
#	24505
#	33263
#	43728
#	53638
#	64838
#	78433
#	89108
#	100933
#	113188
#	123315
#
# Disc length: 1854 seconds
#
# Revision: 2
# Processed by: cddbd v1.5.1PL2 Copyright (c) Steve Scherf et al.
# Submitted via: audiograbber 1.83.01
#
DISCID=9d073c0c
DTITLE=Carole Simpson - All about Carole
DYEAR=1957
DGENRE=
TTITLE0=You make me fell so young
TTITLE1=Listen, little girl
TTITLE2=You forgot your gloves
TTITLE3=Sure thing
TTITLE4=Gentleman friend
TTITLE5=Your name is love
TTITLE6=Everytime
TTITLE7=Oh! Look at me now
TTITLE8=Time
TTITLE9=I'll be around
TTITLE10=There will never be another you
TTITLE11=Just because we're kids
EXTD=
EXTT0=
EXTT1=
EXTT2=
EXTT3=
EXTT4=
EXTT5=
EXTT6=
EXTT7=
EXTT8=
EXTT9=
EXTT10=
EXTT11=
PLAYORDER=
